<svg width="28" height="28" viewBox="0 0 28 28" fill="none" xmlns="http://www.w3.org/2000/svg">
<rect width="28" height="28" rx="8" fill="white"/>
<path d="M21.875 21.2916V9.62492H10.2084V8.89575C10.2084 7.68942 11.1895 6.70825 12.3959 6.70825H14.5834V2.33325H12.3959C10.656 2.33541 8.98809 3.02751 7.75785 4.25775C6.52761 5.48799 5.83551 7.15593 5.83335 8.89575V9.62492H2.91669V13.9999H5.83335V21.2916H2.91669V25.6666H13.125V21.2916H10.2084V13.9999H17.5409V21.2916H14.5834V25.6666H24.7917V21.2916H21.875Z" fill="#DF3701"/>
<path d="M19.6875 6.70825C20.8956 6.70825 21.875 5.72887 21.875 4.52075C21.875 3.31263 20.8956 2.33325 19.6875 2.33325C18.4794 2.33325 17.5 3.31263 17.5 4.52075C17.5 5.72887 18.4794 6.70825 19.6875 6.70825Z" fill="#DF3701"/>
</svg>
